<?xml version="1.0" standalone="no"?>
<!DOCTYPE svg PUBLIC "-//W3C//DTD SVG 20010904//EN"
 "http://www.w3.org/TR/2001/REC-SVG-20010904/DTD/svg10.dtd">
<svg version="1.0" xmlns="http://www.w3.org/2000/svg"
 width="512.000000pt" height="512.000000pt" viewBox="0 0 512.000000 512.000000"
 preserveAspectRatio="xMidYMid meet">
<metadata>
Created by potrace 1.14, written by Peter Selinger 2001-2017
</metadata>
<g transform="translate(0.000000,512.000000) scale(0.100000,-0.100000)"
fill="#000000" stroke="none">
<path d="M3580 5105 c-302 -44 -544 -169 -787 -407 -253 -249 -760 -757 -816
-817 -97 -105 -214 -299 -263 -436 -9 -26 -23 -35 -85 -59 -121 -47 -245 -120
-346 -204 -117 -98 -946 -936 -1015 -1027 -113 -148 -205 -356 -244 -547 -21
-106 -26 -348 -9 -454 28 -175 86 -342 166 -478 197 -333 498 -556 868 -642
131 -31 369 -40 497 -19 245 40 468 137 648 283 39 31 271 257 517 502 521
520 577 587 670 814 l37 88 88 38 c103 43 219 110 307 177 82 62 921 896 1000
993 155 192 252 407 291 645 23 138 15 380 -17 515 -61 257 -179 470 -355 644
-221 218 -484 352 -767 391 -88 13 -297 12 -385 0z m370 -764 c285 -89 466
-394 405 -685 -18 -85 -49 -163 -89 -223 -14 -21 -211 -223 -438 -450 l-412
-411 -33 81 c-67 163 -166 312 -293 436 -72 71 -218 187 -250 199 -8 3 -17 8
-20 12 -10 12 -128 69 -187 90 -35 13 -63 24 -63 25 0 11 828 825 862 848 144
99 351 130 518 78z m-2221 -1852 c122 -334 419 -628 774 -766 l47 -19 -422
-420 c-376 -374 -431 -424 -493 -456 -92 -48 -166 -68 -259 -72 -93 -4 -160 7
-246 41 -182 72 -321 233 -365 423 -20 87 -13 236 14 313 51 145 61 157 505
600 230 229 420 417 421 417 1 0 12 -27 24 -61z"/>
<path d="M1881 5014 c-57 -24 -91 -75 -91 -134 0 -16 7 -55 16 -87 9 -32 27
-100 41 -152 39 -152 69 -189 157 -198 44 -4 57 -1 93 23 71 47 81 96 46 228
-13 50 -33 124 -43 164 -26 97 -45 128 -97 152 -50 24 -76 25 -122 4z"/>
<path d="M810 4398 c-75 -28 -116 -121 -85 -195 16 -38 219 -250 270 -283 101
-64 232 11 226 129 -1 25 -11 59 -21 76 -24 38 -237 248 -269 264 -30 17 -90
21 -121 9z"/>
<path d="M170 3312 c-47 -25 -83 -93 -76 -146 9 -76 56 -116 171 -146 44 -12
121 -32 170 -45 125 -33 187 -18 226 57 22 44 24 86 5 131 -25 59 -52 74 -229
122 -186 50 -217 53 -267 27z"/>
<path d="M4545 2158 c-39 -11 -58 -26 -84 -68 -26 -43 -27 -93 -3 -139 24 -49
55 -67 157 -96 50 -14 122 -34 162 -45 93 -26 127 -25 179 5 46 27 79 89 70
135 -2 14 -5 30 -5 37 -1 7 -15 28 -32 47 -32 38 -52 45 -264 102 -117 31
-139 34 -180 22z"/>
<path d="M3990 1214 c-87 -37 -119 -139 -70 -219 26 -42 239 -249 275 -268 36
-18 106 -14 141 9 61 40 87 128 56 189 -18 36 -224 248 -267 274 -40 26 -95
31 -135 15z"/>
<path d="M3045 671 c-54 -23 -97 -97 -91 -153 6 -48 78 -305 97 -345 22 -46
82 -83 134 -83 46 0 109 43 130 90 22 48 18 80 -34 275 -35 131 -52 168 -93
198 -29 22 -111 32 -143 18z"/>
</g>
</svg>
